<svg width="495" height="147" viewBox="0 0 495 147" fill="none" xmlns="http://www.w3.org/2000/svg">
<path d="M24.864 119H6.72V50.072H24.864V75.704H50.304V50.072H68.448V119H50.304V91.448H24.864V119ZM103.892 119.864C87.9555 119.864 77.2995 109.112 77.2995 93.08C77.2995 77.624 88.4355 66.392 103.796 66.392C120.884 66.392 132.308 80.312 129.332 97.304H94.2915C95.1555 103.832 98.2275 107.096 103.508 107.096C108.116 107.096 111.188 105.176 112.628 101.432H129.044C125.875 113.24 116.756 119.864 103.892 119.864ZM103.411 78.488C98.5155 78.488 95.6355 81.272 94.4835 87.032H111.764C111.572 81.848 108.308 78.488 103.411 78.488ZM153.698 119H137.282V67.352H152.354V73.688C156.29 69.08 160.514 66.392 167.234 66.392C173.762 66.392 178.946 69.176 181.826 74.36C186.242 69.368 190.85 66.392 198.434 66.392C208.706 66.392 215.906 73.208 215.906 85.784V119H199.49V90.872C199.49 84.92 197.09 81.176 192.386 81.176C188.258 81.176 184.802 84.056 184.802 90.968V119H168.386V90.872C168.386 84.92 165.986 81.176 161.282 81.176C157.058 81.176 153.698 84.056 153.698 90.968V119ZM256.397 119V114.008C252.749 118.136 248.237 119.96 241.613 119.96C230.861 119.96 223.661 113.528 223.661 103.736C223.661 93.656 231.821 88.184 246.605 88.184C249.389 88.184 251.981 88.376 254.189 88.76V86.264C254.189 81.752 251.597 79.256 246.989 79.256C242.477 79.256 239.789 81.752 239.213 86.264H224.429C225.389 74.264 234.317 66.392 247.085 66.392C261.293 66.392 269.645 74.072 269.645 87.128V119H256.397ZM239.117 103.256C239.117 106.616 241.421 108.632 245.453 108.632C250.925 108.632 254.189 106.04 254.189 101.816V98.552C251.693 98.072 249.773 97.88 247.661 97.88C242.093 97.88 239.117 99.704 239.117 103.256ZM296.292 91.832V119H279.876V67.352H294.948V73.592C298.98 69.08 303.78 66.392 310.308 66.392C320.484 66.392 327.684 73.208 327.684 85.784V119H311.268V91.256C311.268 84.728 308.964 81.176 303.972 81.176C299.94 81.176 296.292 84.056 296.292 91.832ZM372.188 102.872V117.176C368.54 119.192 365.084 119.96 360.476 119.96C348.86 119.96 342.044 113.048 342.044 101.24V81.656H332.444V67.352H342.044V52.184H358.46V67.352H372.572V81.656H358.46V97.4C358.46 102.392 360.572 104.696 365.084 104.696C367.772 104.696 370.364 104.024 372.188 102.872ZM396.323 91.832V119H379.907V50.072H396.323V72.92C400.067 68.888 403.811 66.392 410.339 66.392C420.515 66.392 427.715 73.208 427.715 85.784V119H411.299V91.256C411.299 84.728 408.995 81.176 404.003 81.176C399.971 81.176 396.323 84.056 396.323 91.832Z" fill="#C6BEAC"/>
<g clip-path="url(#clip0_59_6)">
<path d="M438.644 50.3776L454.51 35L438.644 19.6223L422.778 35L438.644 50.3776ZM479.134 50.3776L495 35L479.134 19.6223L463.268 35L479.134 50.3776ZM458.889 70L474.755 54.6224L458.889 39.2444L443.023 54.6224L458.889 70ZM458.889 30.7555L474.755 15.3777L458.889 0L443.023 15.3777L458.889 30.7555Z" fill="#C6BEAC"/>
</g>
<defs>
<clipPath id="clip0_59_6">
<rect width="72.2222" height="70" fill="white" transform="matrix(-1 0 0 1 495 0)"/>
</clipPath>
</defs>
</svg>
